<svg width="15" height="17" viewBox="0 0 15 17" fill="none" xmlns="http://www.w3.org/2000/svg">
<path fill-rule="evenodd" clip-rule="evenodd" d="M13.7799 16.0769C13.7032 15.5458 13.5606 15.0252 13.3543 14.5272C13.0296 13.7433 12.5536 13.031 11.9536 12.431C11.3536 11.831 10.6413 11.355 9.85734 11.0303C9.07339 10.7056 8.23316 10.5384 7.38461 10.5384C6.53607 10.5384 5.69584 10.7056 4.91189 11.0303C4.12794 11.355 3.41563 11.831 2.81562 12.431C2.21561 13.031 1.73965 13.7433 1.41493 14.5272C1.20868 15.0252 1.066 15.5458 0.989351 16.0769L13.7799 16.0769ZM14.7113 16.0769C14.6291 15.4243 14.4599 14.7842 14.2071 14.174C13.836 13.2781 13.2921 12.464 12.6063 11.7783C11.9206 11.0925 11.1065 10.5486 10.2106 10.1775C9.31464 9.80637 8.35438 9.61536 7.38461 9.61536C6.41485 9.61536 5.45459 9.80637 4.55865 10.1775C3.6627 10.5486 2.84863 11.0925 2.1629 11.7783C1.47718 12.464 0.933232 13.2781 0.56212 14.174C0.309354 14.7842 0.140138 15.4243 0.0579191 16.0769C0.0194243 16.3824 0 16.6907 0 17L14.7692 17C14.7692 16.6907 14.7498 16.3824 14.7113 16.0769Z" fill="#0F303F"/>
<path fill-rule="evenodd" clip-rule="evenodd" d="M7.38371 6.84618C8.91312 6.84618 10.1529 5.60636 10.1529 4.07695C10.1529 2.54755 8.91312 1.30772 7.38371 1.30772C5.85431 1.30772 4.61448 2.54755 4.61448 4.07695C4.61448 5.60636 5.85431 6.84618 7.38371 6.84618ZM7.38371 7.76926C9.42292 7.76926 11.076 6.11616 11.076 4.07695C11.076 2.03775 9.42292 0.384644 7.38371 0.384644C5.34451 0.384644 3.69141 2.03775 3.69141 4.07695C3.69141 6.11616 5.34451 7.76926 7.38371 7.76926Z" fill="#0F303F"/>
</svg>
